<svg id="svg" version="1.1" width="806" height="852" xmlns="http://www.w3.org/2000/svg" xmlns:xlink="http://www.w3.org/1999/xlink" ><g id="svgg"><path id="path0" d="M341.191 47.428 C 335.240 48.539,317.993 52.537,298.511 57.322 C 288.958 59.668,277.345 62.486,272.705 63.583 C 258.268 66.997,234.821 72.482,227.295 74.206 C 223.337 75.113,210.625 78.118,199.045 80.883 C 187.465 83.649,173.954 86.807,169.020 87.900 C 160.306 89.832,134.637 95.889,111.414 101.494 C 105.136 103.009,94.529 105.485,87.841 106.995 C 26.016 120.958,25.776 121.048,20.295 132.232 C 16.886 139.187,17.129 141.047,26.101 176.791 C 33.280 205.389,32.716 196.569,32.765 281.141 C 32.808 355.499,33.184 377.471,34.500 382.382 C 37.931 395.191,47.709 405.464,60.546 409.747 C 63.164 410.620,69.126 410.663,206.939 410.803 L 350.602 410.949 355.397 409.409 C 368.122 405.324,376.673 396.524,380.842 383.225 L 382.134 379.105 382.129 284.714 L 382.124 190.323 380.933 187.764 C 380.015 185.793,379.197 184.886,377.367 183.814 L 374.993 182.423 258.092 182.078 C 130.825 181.702,132.506 181.739,132.506 179.317 C 132.506 177.178,159.386 170.114,181.390 166.470 C 184.119 166.018,188.809 164.873,191.811 163.924 C 198.302 161.875,229.136 154.679,246.690 151.117 C 254.866 149.458,261.657 147.933,275.434 144.662 C 288.287 141.611,292.865 140.569,304.715 137.994 C 311.129 136.601,321.737 134.212,328.288 132.686 C 345.691 128.633,349.008 127.883,360.794 125.339 C 382.285 120.699,383.471 119.537,380.425 106.109 C 378.826 99.059,370.994 69.734,369.433 64.949 C 364.975 51.291,354.689 44.909,341.191 47.428 M350.729 64.329 C 353.906 66.683,355.260 70.152,360.067 88.258 C 365.318 108.030,365.159 108.387,349.545 111.874 C 333.608 115.433,334.678 115.919,314.813 96.089 C 292.190 73.507,291.827 74.922,322.084 67.704 C 343.510 62.592,347.715 62.097,350.729 64.329 M277.730 81.408 C 280.233 82.930,306.627 109.055,309.473 112.828 C 314.601 119.627,312.846 120.619,284.864 126.741 C 257.627 132.701,261.269 133.719,242.143 114.795 C 218.202 91.108,218.117 92.427,244.007 86.104 C 252.421 84.049,261.427 81.821,264.020 81.153 C 270.068 79.594,274.892 79.684,277.730 81.408 M202.449 98.360 C 205.482 99.819,235.343 129.468,236.452 132.122 C 237.973 135.764,236.183 137.438,228.858 139.218 C 193.792 147.742,186.623 148.827,182.596 146.218 C 178.907 143.828,151.206 115.714,150.153 113.292 C 148.062 108.480,147.140 108.815,190.819 98.511 C 197.154 97.016,199.588 96.985,202.449 98.360 M129.319 116.241 C 130.663 117.121,137.930 123.988,145.468 131.501 C 168.171 154.127,168.236 153.176,143.619 158.531 C 136.766 160.022,127.945 162.054,124.016 163.047 C 111.765 166.144,110.555 165.422,86.696 140.790 C 72.829 126.474,72.656 126.742,100.248 119.837 C 124.262 113.827,125.418 113.684,129.319 116.241 M54.763 132.755 C 56.907 133.651,66.863 142.832,77.507 153.730 C 93.625 170.232,93.793 169.951,63.949 176.405 C 43.496 180.827,43.467 180.818,40.039 168.734 C 33.975 147.358,33.127 141.933,35.331 138.604 C 38.329 134.073,49.716 130.646,54.763 132.755 M82.696 198.622 C 84.584 199.650,85.080 201.319,84.331 204.113 C 83.180 208.399,66.846 239.448,64.371 242.053 C 60.054 246.598,52.663 246.155,49.204 241.145 L 48.037 239.454 48.290 221.588 C 48.601 199.603,48.734 199.055,54.013 197.966 C 57.870 197.170,81.001 197.699,82.696 198.622 M159.167 198.513 C 162.638 200.764,161.986 202.961,152.352 221.464 C 138.700 247.686,142.881 245.143,113.400 245.150 C 80.090 245.158,80.959 245.974,91.985 225.062 C 105.456 199.515,106.079 198.644,111.385 197.939 C 116.632 197.242,157.972 197.739,159.167 198.513 M235.601 198.653 C 239.162 200.579,238.246 203.462,227.782 223.263 C 219.280 239.349,217.319 242.489,214.888 243.903 C 212.658 245.200,166.020 245.506,163.653 244.238 C 160.317 242.452,160.716 240.339,166.611 228.565 C 179.507 202.805,182.239 198.723,187.097 197.957 C 192.338 197.131,233.889 197.727,235.601 198.653 M309.876 197.991 C 315.202 199.227,315.131 201.628,309.437 212.953 C 297.982 235.733,294.092 242.317,291.067 244.040 L 289.082 245.170 265.509 245.042 C 233.698 244.868,234.373 245.271,241.722 230.866 C 256.207 202.476,258.603 198.916,263.803 198.045 C 267.169 197.482,307.477 197.435,309.876 197.991 M363.772 198.785 C 366.679 200.488,366.876 201.716,367.126 219.603 C 367.511 247.240,369.721 245.326,337.717 245.071 C 310.173 244.852,310.816 245.423,319.252 228.645 C 332.164 202.964,334.953 198.878,340.199 197.951 C 344.987 197.105,361.927 197.704,363.772 198.785 M356.002 260.972 L 363.369 261.309 365.002 263.091 L 366.635 264.873 367.008 275.737 C 367.814 299.238,366.968 376.057,365.865 379.511 C 363.464 387.023,358.201 392.275,350.431 394.908 C 347.364 395.948,78.267 396.541,70.720 395.524 C 58.999 393.946,52.389 388.653,49.332 378.397 C 47.969 373.823,47.907 267.133,49.266 264.645 C 51.117 261.257,50.726 261.318,72.186 261.029 C 101.449 260.634,347.555 260.584,356.002 260.972 " stroke="none" fill="#000000" fill-rule="evenodd"></path></g></svg>